<?xml version="1.0" encoding="UTF-8"?>
<svg id="Capa_2" data-name="Capa 2" xmlns="http://www.w3.org/2000/svg" viewBox="0 0 1806.72 2424.63">
  <defs>
    <style>
      .cls-1 {
        fill: none;
        stroke: #4d4d4d;
        stroke-linecap: round;
        stroke-linejoin: round;
        stroke-width: 2.17px;
      }

      .cls-2 {
        opacity: .2;
      }

      .cls-3 {
        opacity: .4;
      }
    </style>
  </defs>
  <g id="fondo">
    <g class="cls-2">
      <g class="cls-3">
        <path class="cls-1" d="M987.22,56.09s18.15,177.85,35.67,288.57c9.36,59.16-232.96,146.33-246.51,172.36-44.82,86.09,234.53,64.44,279.55,146.33,54.22,98.61,135.47,112.1,119.37,146.81-8.58,18.51-285.74,77.62-264.23,123.76,43.2,92.69,221.95,79.67,259.22,146.73,54.65,98.31-309.2,147.51-185.52,317.12,68.45,93.87,340.03,129.92,307.51,212.99-55.91,142.78-560.84,276.86-574.35,414.14-12.1,123.01,339.44,206.68,385.44,346.41"/>
        <path class="cls-1" d="M955.94,58.1s19.48,174.04,32.26,284.14c6.99,60.26-225.39,147.26-237.99,174.19-40.6,86.84,234.38,67.54,277.72,149.6,51.49,97.5,126.91,112.34,108.54,145.29-11.78,21.13-274.09,79-258.98,124.93,30.56,92.86,221.56,80.06,261.53,148.48,57.58,98.57-288.62,142.32-179.51,311.77,60.15,93.42,326.94,132.03,298.07,216.54-48.14,140.9-550.07,272.04-557.54,413.69-6.49,123.05,327.95,205.19,365.97,346.6"/>
        <path class="cls-1" d="M924.65,60.11s20.67,170.34,28.84,279.7c4.59,61.43-217.84,148.13-229.46,176.01-36.47,87.45,234.25,70.62,275.89,152.87,48.79,96.37,117.64,112.32,97.7,143.77-15.15,23.89-262.71,79.48-253.73,126.1,17.71,91.9,221.15,80.46,263.85,150.24,60.47,98.84-267.74,137.56-173.5,306.42,52.1,93.37,313.9,133.85,288.64,220.09-40.61,138.66-532.28,267.28-540.72,413.23-7.11,122.74,316.46,203.7,346.5,346.78"/>
        <path class="cls-1" d="M893.36,62.12s21.72,166.74,25.43,275.26c2.14,62.67-210.28,148.97-220.94,177.84-32.43,87.91,234.12,73.67,274.06,156.15,46.11,95.21,107.93,112.11,86.87,142.25-18.65,26.69-242.97,79.23-248.48,127.26,20.79,87.12,220.72,80.86,266.16,151.99,63.32,99.12-246.67,133.4-167.49,301.08,44.29,93.79,300.87,135.37,279.21,223.64-33.39,136.05-518.64,261.85-523.91,412.78-4.29,122.75,304.97,202.22,327.03,346.97"/>
        <path class="cls-1" d="M862.08,64.12s31.58,163.69,22.02,270.83c-5.69,63.7-202.75,149.76-212.41,179.67-28.5,88.25,234,76.7,272.23,159.42,43.45,94.02,97.92,111.73,76.03,140.73-17.92,23.73-155.05,60.91-215.54,99.88-23.25,14.98-25.25,49.31-3.74,66.89,58.72,47.97,204.98,55.98,244.51,115.41,66.13,99.42-225.61,129.98-161.48,295.73,36.67,94.77,287.83,136.62,269.78,227.19-26.53,133.1-518.61,256.53-507.1,412.32,9.05,122.47,293.48,200.73,307.56,347.16"/>
        <path class="cls-1" d="M830.79,66.13s33.79,160.85,18.6,266.39c-9.31,64.67-195.24,150.51-203.88,181.49-24.7,88.47,233.9,79.71,270.39,162.69,40.82,92.81,87.73,111.24,65.2,139.2-22.02,27.33-160.67,65.99-216.82,107.14-18.23,13.36-20.07,41.29-3.58,56.91,53.17,50.37,210.45,59.16,253.2,121.05,68.91,99.74-204.77,127.39-155.47,290.39,29.15,96.36,274.74,137.59,260.35,230.74-20.07,129.84-508.47,251.13-490.29,411.87,13.82,122.14,281.99,199.24,288.09,347.35"/>
        <path class="cls-1" d="M799.51,68.14s23.97,156.38,15.19,261.95c-5.55,66.71-187.75,151.24-195.36,183.32-21.02,88.61,233.8,82.69,268.56,165.96,38.22,91.56,77.41,110.64,54.36,137.68-25.77,30.23-156.59,68.6-212.6,110.7-18,13.53-19.35,41.27-2.54,56.37,53.17,47.75,211.13,59,255.5,120.96,71.67,100.07-184.42,125.68-149.46,285.04,21.63,98.58,288.14,145.83,250.92,234.29-49,116.45-498.52,245.67-473.48,411.41,18.4,121.77,270.49,197.76,268.62,347.54"/>
        <path class="cls-1" d="M768.22,70.15s24.43,153.02,11.77,257.52c-8.25,68.12-180.29,151.93-186.83,185.14-17.46,88.66,233.73,85.65,266.73,169.23,35.65,90.28,66.99,109.98,43.52,136.16-29.18,32.56-147.15,69.71-205.28,111.9-20.32,14.75-20.75,46.13-.67,61.24,56.98,42.88,209.05,57.29,253.88,117.8,74.39,100.42-164.79,124.8-143.45,279.7,13.98,101.41,279.06,146.65,241.49,237.84-46.52,112.91-488.75,240.19-456.66,410.96,22.81,121.39,259,196.27,249.15,347.73"/>
        <path class="cls-1" d="M736.94,72.16s24.74,149.66,8.36,253.08c-11.02,69.54-172.87,152.61-178.31,186.97-14.02,88.65,233.67,88.59,264.9,172.5,33.11,88.98,56.51,109.25,32.69,134.64-33.2,35.38-141.02,71.95-200.83,115.12-20.28,14.64-20.34,46.13.03,60.65,57.56,41.04,210,57.59,256.29,118.1,77.09,100.79-146.08,124.61-137.44,274.35,6.05,104.79,217.04,140.35,232.05,241.39-23.86,116.07-479.17,234.7-439.85,410.5,27.07,121.02,247.51,194.78,229.68,347.92"/>
        <path class="cls-1" d="M705.65,74.17s24.93,146.31,4.95,248.65c-13.86,70.98-165.49,153.26-169.78,188.79-10.71,88.6,233.64,91.51,263.07,175.78,30.61,87.65,45.98,108.47,21.85,133.12-38.06,38.87-137.43,75.33-199.83,120.69-17.94,13.04-18.33,40.48-.77,54.07,54.17,41.91,214.55,59.77,263.65,122.04,79.78,101.17-128.38,124.92-131.43,269-2.3,108.59,201.67,141.65,222.62,244.94-19.85,112.73-469.77,229.23-423.04,410.05,31.19,120.67,236.02,193.3,210.21,348.1"/>
        <path class="cls-1" d="M674.36,76.18s25,142.95,1.53,244.21c-16.78,72.4-158.15,153.91-161.26,190.62-7.5,88.51,233.64,94.4,261.24,179.05,28.14,86.3,35.42,107.65,11.02,131.6-41.5,40.71-124.89,75.59-191.15,120.63-20.94,14.23-20.75,46.49.55,60.13,59.33,38.01,212.16,58.53,261.21,118.96,82.44,101.56-111.7,125.53-125.42,263.66-11.19,112.65,186.29,142.96,213.19,248.49-15.85,109.39-460.55,223.81-406.23,409.59,35.19,120.34,224.53,191.81,190.74,348.29"/>
        <path class="cls-1" d="M643.08,78.19s24.95,139.57-1.88,239.77c-19.77,73.81-145.08,155.34-152.73,192.44-17.85,86.55,233.66,97.28,259.41,182.32,44.34,146.43,19.67,116.33-180.02,248.95-25.02,16.61-23.11,55.36,3.43,69.17,65.32,33.98,206.86,56.97,254.95,114.6,85.09,101.97-95.97,126.2-119.41,258.31-20.71,116.79,170.92,144.26,203.76,252.04-11.84,106.05-451.49,218.44-389.42,409.14,39.08,120.06,213.04,190.32,171.27,348.48"/>
        <path class="cls-1" d="M611.79,80.2s24.82,136.16-5.29,235.34c-22.83,75.2-137.68,155.77-144.21,194.27-14.75,86.97,233.71,100.13,257.58,185.59,32.46,116.25,25.29,119.13-206.17,262.77-5.67,3.52-9.9,9.34-10.94,16.13-9.18,59.93,225.63,77.52,292.19,155.21,87.72,102.4-81.07,126.74-113.4,252.97-30.94,120.83,155.54,145.57,194.33,255.59-7.83,102.71-442.59,213.14-372.6,408.68,42.88,119.81,201.54,188.84,151.8,348.67"/>
        <path class="cls-1" d="M580.51,82.21s24.59,132.71-8.71,230.9c-25.97,76.56-130.4,156.19-135.68,196.09-11.56,87.4,233.8,102.97,255.75,188.86,20.98,82.12,3.61,105-21.49,127.03-57.67,50.61-98.79,83.28-190.42,135.76-5.29,3.03-9.59,7.83-11.54,13.78-19.66,59.98,225.31,79.34,295.25,158.95,90.35,102.83-66.83,127.01-107.39,247.62-41.89,124.57,140.17,146.87,184.9,259.14-3.83,99.37-433.84,207.93-355.79,408.23,46.61,119.61,190.05,187.35,132.33,348.86"/>
        <path class="cls-1" d="M549.22,84.21s24.29,129.22-12.12,226.46c-29.17,77.89-123.26,156.61-127.16,197.92-8.29,87.82,233.94,105.79,253.92,192.13,28.35,122.54-31.28,117.78-223.07,265.62-71.3,54.96,214.78,85.94,291.61,171.3,92.96,103.28-53.08,126.88-101.38,242.28-53.52,127.87,124.8,148.17,175.47,262.69.18,96.03-425.22,202.81-338.98,407.77,50.26,119.46,178.56,185.86,112.86,349.05"/>
        <path class="cls-1" d="M517.94,86.22s23.93,125.68-15.54,222.03c-32.43,79.17-122.06,157.12-118.63,199.75,7.09,88.07,234.11,108.6,252.08,195.41,16.41,79.24-17.63,103.1-43.16,123.99-67.78,55.46-81.02,68.82-185.5,141.28-77.27,53.58,214.16,86.47,293.92,173.06,95.56,103.74-39.64,126.27-95.37,236.93-65.77,130.59,109.42,149.48,166.04,266.24,4.18,92.69-416.73,197.78-322.17,407.32,53.87,119.36,167.07,184.38,93.39,349.24"/>
        <path class="cls-1" d="M486.65,88.23c47.85,248.41-137.33,344.6-129.05,419.16,9.78,88.04,234.34,111.39,250.25,198.68,14.19,77.79-28.26,102.12-54,122.47-72.35,57.2-65.53,70.39-180.25,142.44-83.4,52.38,213.54,87.01,296.23,174.81,98.15,104.22-26.36,125.16-89.36,231.58-78.52,132.65,94.05,150.78,156.6,269.79,8.19,89.35-408.35,192.85-305.35,406.86,57.42,119.31,155.58,182.89,73.92,349.42"/>
        <path class="cls-1" d="M455.37,90.24c44.7,229.61-135.35,335.63-123.94,416.55,12.41,88.05,234.61,114.18,248.42,201.95,12.01,76.33-38.88,101.12-64.83,120.95-76.98,58.82-50.12,72.16-175,143.61-89.67,51.3,212.91,87.56,298.55,176.57,100.74,104.7-13.11,123.54-83.35,226.24-91.66,134.03,78.67,152.09,147.17,273.34,12.2,86.01-400.08,188.03-288.54,406.41,60.94,119.32,144.09,181.4,54.45,349.61"/>
        <path class="cls-1" d="M424.08,92.25c41.34,210.25-133.53,327.63-118.83,413.94,15,88.09,234.94,116.97,246.59,205.22,9.88,74.87-49.5,100.1-75.67,119.42-81.68,60.32-34.8,74.09-169.75,144.78-96.09,50.34,212.27,88.12,300.86,178.32,103.31,105.2.21,121.43-77.33,220.89-105.04,134.73,63.3,153.39,137.74,276.88,16.2,82.67-391.9,183.31-271.73,405.95,64.43,119.37,132.6,179.92,34.98,349.8"/>
        <path class="cls-1" d="M392.79,94.26s22.04,110.99-29.19,204.28c-46.02,83.81-93.91,159.91-84.53,207.05,17.55,88.18,235.34,119.76,244.76,208.49,7.8,73.41-60.12,99.07-86.5,117.9-86.43,61.69-19.58,76.12-164.5,145.95-102.64,49.46,211.63,88.7,303.17,180.08,105.89,105.7,13.67,118.88-71.32,215.55-118.54,134.8,68.71,142.69,128.31,280.43,32.37,74.82-383.81,178.69-254.92,405.5,67.9,119.48,121.1,178.43,15.51,349.99"/>
        <path class="cls-1" d="M361.51,96.27s21.49,107.19-32.6,199.85c-49.53,84.84-86.96,160.66-76,208.87,20.06,88.31,235.8,122.55,242.93,211.76,5.75,71.96-70.72,98.02-97.34,116.38-91.23,62.94-4.44,78.22-159.25,147.11-109.31,48.64,210.98,89.28,305.49,181.84,108.45,106.22,27.34,115.94-65.31,210.2-132.04,134.34,51.34,144.26,118.88,283.98,34.57,71.51-375.79,174.18-238.11,405.04,71.34,119.63,109.61,176.94-3.96,350.18"/>
        <path class="cls-1" d="M330.22,98.28s20.93,103.33-36.02,195.41c-53.08,85.82-80.03,161.43-67.48,210.7,22.55,88.48,236.32,125.35,241.1,215.04,3.75,70.52-81.32,96.95-108.17,114.86-96.09,64.07,10.61,80.39-154,148.28-116.07,47.87,210.33,89.87,307.8,183.59,111.01,106.75,41.23,112.65-59.3,204.86-145.48,133.42,33.57,146.27,109.45,287.53,36.74,68.39-367.84,169.76-221.29,404.59,74.78,119.82,98.12,175.46-23.42,350.37"/>
        <path class="cls-1" d="M298.94,100.29s20.36,99.42-39.43,190.98c-56.65,86.74-73.13,162.23-58.95,212.52,25.01,88.71,236.92,128.17,239.27,218.31,1.8,69.09-91.91,95.88-119.01,113.34-100.99,65.08,25.59,82.59-148.75,149.45-122.92,47.14,209.67,90.47,310.11,185.35,113.57,107.28,55.36,109.09-53.29,199.51-158.78,132.13,15.43,148.75,100.02,291.08,38.91,65.48-359.95,165.45-204.48,404.13,78.2,120.07,86.63,173.97-42.89,350.56"/>
        <path class="cls-1" d="M267.65,102.29s19.79,95.46-42.85,186.54c-60.25,87.61-66.26,163.05-50.43,214.35,27.46,88.97,233.91,131.08,237.44,221.58,2.64,67.63-102.5,94.79-129.85,111.82-105.93,65.96,40.5,84.81-143.51,150.62-129.86,46.44,209,91.07,312.42,187.1,116.13,107.82,69.73,105.29-47.28,194.16-171.91,130.57-3.02,151.74,90.58,294.63,41.13,62.78-352.1,161.23-187.67,403.68,81.62,120.35,75.14,172.48-62.36,350.74"/>
        <path class="cls-1" d="M236.37,104.3s19.21,91.45-46.26,182.1c-63.87,88.43-59.4,163.89-41.9,216.17,29.89,89.29,238.34,133.87,235.61,224.85-2,66.3-113.07,93.68-140.68,110.29-110.91,66.72,55.34,87.05-138.26,151.78-136.86,45.76,208.33,91.69,314.74,188.86,118.68,108.37,84.31,101.31-41.27,188.82-184.86,128.81-21.74,155.25,81.15,298.18,43.41,60.29-344.3,157.1-170.86,403.22,85.04,120.67,63.65,171-81.83,350.93"/>
        <path class="cls-1" d="M205.08,106.31s18.64,87.4-49.67,177.67c-67.51,89.2-52.57,164.76-33.37,218,32.32,89.64,239.17,136.77,233.77,228.12-3.84,64.95-123.63,92.57-151.52,108.77-115.93,67.36,70.13,89.29-133.01,152.95-143.92,45.1,207.56,92.44,317.05,190.61,121.12,109.07,99.11,97.18-35.26,183.47-197.62,126.91-40.65,159.29,71.72,301.73,45.77,58.02-336.54,153.05-154.05,402.77,88.46,121.04,52.15,169.51-101.3,351.12"/>
        <path class="cls-1" d="M173.79,108.32s18.07,83.3-53.09,173.23c-71.16,89.93-45.74,165.66-24.85,219.82,34.74,90.04,240.08,139.71,231.94,231.39-5.65,63.63-134.18,91.45-162.35,107.25-120.98,67.87,84.87,91.54-127.76,154.12-151.04,44.46,206.98,92.95,319.36,192.37,123.77,109.5,114.1,92.93-29.25,178.13-210.18,124.91-59.69,163.82,62.29,305.28,48.25,55.96-328.81,149.09-137.23,402.31,91.87,121.44,40.66,168.02-120.77,351.31"/>
        <path class="cls-1" d="M1805.63,1.09s-68.62,107.23-284.63,199.21c-109.09,46.45-63.34,122.88.28,198,63.63,75.12,72.55,122.31,29.56,205.14-42.99,82.83-89.53,75.5-29.8,157.29,91.73,125.6,337.38,66.9,132.82,189.76-75.9,45.58-166.32,46.27-56.9,175.65,142.32,168.29-71.49,181.32-81.32,361.82-4.3,78.86,78.21,118.45,97.14,205.1,13.55,62.06-51.9,107.34-106.17,235.6-36.05,85.2,466.76,122.27,32.76,415.46"/>
        <path class="cls-1" d="M1760.17,4.14s-63.8,111.16-266.84,204.18c-102.51,47.16-71.48,123.06-13.43,196.58,58.92,74.62,81.17,118.91,43.44,201.87-37.97,83.52-77.51,77.9-21.51,156.71,85.43,120.21,299.65,62.17,110.76,186.09-70.5,46.25-144.75,48.12-39.34,174.04,137.45,164.4-85.62,179.43-87.11,359.33-.66,79.7,94.45,118.77,108.82,205.54,10.99,66.32-80.52,116.61-132.18,245.52-34.95,87.2,459.69,126.96,52.35,411.62"/>
        <path class="cls-1" d="M1714.7,7.2s-58.98,115.08-249.04,209.14c-95.93,47.86-79.63,123.37-27.14,195.15,54.3,74.26,89.8,115.56,57.33,198.61-32.95,84.26-65.5,80.28-13.22,156.13,79.13,114.8,261.7,57.75,88.7,182.42-65.31,47.06-123.18,49.98-21.78,172.44,132.58,160.51-99.62,177.63-92.9,356.85,3.02,80.57,110.32,119.28,120.51,205.98,8.31,70.76-109.09,125.92-158.19,255.44-33.82,89.22,452.62,131.65,71.94,407.79"/>
        <path class="cls-1" d="M1669.23,10.25s-54.38,118.55-231.25,214.11c-89.47,48.34-87.8,123.83-40.85,193.73,49.75,74.07,98.46,112.27,71.22,195.34-27.9,85.07-53.5,82.64-4.93,155.55,72.84,109.35,223.56,53.77,66.64,178.76-60.35,48.07-101.61,51.83-4.21,170.83,127.71,156.62-113.48,175.88-98.69,354.37,6.75,81.47,125.88,119.94,132.2,206.41,5.5,75.32-137.61,135.25-184.2,265.36-32.68,91.26,445.54,136.34,91.54,403.95"/>
        <path class="cls-1" d="M1623.76,13.31s-49.65,122.34-213.45,219.07c-82.93,48.98-96.03,124.46-54.56,192.3,45.27,74.07,107.16,109.04,85.11,192.07-22.82,85.93-41.51,84.97,3.35,154.96,66.56,103.86,185.32,50.37,44.58,175.09-55.64,49.31-80.04,53.69,13.35,169.22,122.83,152.74-127.2,174.18-104.48,351.88,10.54,82.4,150.67,120.94,143.89,206.85-6.3,79.75-166.09,144.61-210.21,275.28-31.51,93.32,438.47,141.03,111.13,400.11"/>
        <path class="cls-1" d="M1578.3,16.36s-44.94,126.14-195.66,224.04c-76.4,49.62-104.34,125.29-68.27,190.88,40.84,74.28,115.91,105.86,99,188.81-17.7,86.85-29.52,87.26,11.64,154.38,60.3,98.33,147.06,47.73,22.52,171.42-51.19,50.85-58.47,55.55,30.91,167.62,117.96,148.85-140.79,172.51-110.27,349.4,14.38,83.34,166.59,122.27,155.57,207.29-10.87,83.93-194.53,153.99-236.22,285.2-30.31,95.39,431.4,145.72,130.72,396.28"/>
        <path class="cls-1" d="M1532.83,19.42s-40.22,129.97-177.86,229c-69.88,50.28-112.76,126.33-81.98,189.45,36.44,74.72,124.71,102.72,112.89,185.54-12.53,87.81-17.55,89.51,19.93,153.8,54.06,92.73,108.95,46.02.47,167.76-46.99,52.73-36.9,57.4,48.47,166.01,113.09,144.96-154.24,170.84-116.06,346.92,18.28,84.28,181.85,123.62,167.26,207.73-15.28,88.1-222.93,163.4-262.23,295.12-29.09,97.48,424.32,150.41,150.32,392.44"/>
        <path class="cls-1" d="M1487.36,22.48s-35.52,133.81-160.07,233.96c-63.36,50.95-121.35,127.6-95.69,188.03,32.02,75.42,133.57,99.61,126.78,182.27-7.3,88.8-5.59,91.72,28.21,153.22,47.85,87.06,71.18,45.39-21.59,164.09-42.99,55-15.11,59.08,66.04,164.4,108.51,140.84-167.58,169.16-121.84,344.43,22.24,85.22,185.58,123.18,178.95,208.17-7.35,94.19-251.28,172.82-288.24,305.03-27.83,99.57,417.25,155.1,169.91,388.61"/>
        <path class="cls-1" d="M1441.89,25.53s-30.82,137.69-142.28,238.93c-268.23,243.64,27.72,234.64,31.26,365.61,2.43,89.81,6.37,93.86,36.5,152.64,41.69,81.31,33.98,45.94-43.65,160.43-39.14,57.73,6.48,60.92,83.6,162.79,103.66,136.93-180.79,167.46-127.63,341.95,26.25,86.15,200.03,124.01,190.63,208.61-10.99,98.92-279.6,182.25-314.25,314.95-26.55,101.68,410.18,159.79,189.5,384.77"/>
        <path class="cls-1" d="M1396.43,28.59s-26.12,141.61-124.48,243.89c-50.32,52.33-139.18,130.79-123.11,185.18,22.92,77.61,151.5,93.43,154.55,175.74,3.37,90.84,18.32,95.93,44.79,152.05,35.58,75.46-2.44,47.69-65.71,156.76-35.34,60.93,28.06,62.77,101.16,161.19,98.81,133.03-193.91,165.72-133.42,339.47,30.31,87.06,214.35,124.82,202.32,209.04-14.8,103.63-307.87,191.7-340.26,324.87-25.24,103.8,403.1,164.47,209.1,380.93"/>
        <path class="cls-1" d="M1350.96,31.64s-21.41,145.56-106.69,248.86c-43.8,53.06-148.5,132.67-136.83,183.76,18.07,79.08,160.56,90.34,168.44,172.47,8.81,91.85,30.29,97.92,53.08,151.47,29.57,69.48-37.89,50.56-87.77,153.09-31.44,64.63,49.64,64.63,118.72,159.58,93.96,129.14-206.93,163.94-139.21,336.98,34.42,87.95,228.56,125.59,214.01,209.48-18.79,108.29-336.11,201.15-366.27,334.79-23.91,105.93,396.03,169.16,228.69,377.1"/>
        <path class="cls-1" d="M1305.49,34.7s-16.67,149.56-88.89,253.82c-37.27,53.8-158.14,134.71-150.54,182.33,12.89,80.76,169.68,87.24,182.33,169.2,14.33,92.85,42.28,99.8,61.36,150.89,23.67,63.37-72.22,54.4-109.82,149.43-27.23,68.81,71.21,66.48,136.28,157.97,89.09,125.25-219.88,162.1-145,334.5,38.57,88.81,242.68,126.31,225.7,209.92-22.93,112.89-364.31,210.62-392.28,344.71-22.54,108.06,388.96,173.85,248.29,373.26"/>
        <path class="cls-1" d="M1260.03,37.75s-11.9,153.61-71.1,258.79c-30.71,54.57-168.1,136.84-164.25,180.91,7.21,82.59,178.86,84.1,196.22,165.93,19.9,93.81,54.32,101.56,69.65,150.31,17.95,57.09-105.37,58.98-131.88,145.76-22.44,73.44,92.77,68.35,153.85,156.37,84.22,121.38-232.75,160.2-150.79,332.02,42.76,89.63,256.72,126.99,237.38,210.36-27.24,117.41-392.48,220.08-418.29,354.63-21.14,110.19,381.88,178.54,267.88,369.42"/>
        <path class="cls-1" d="M1214.56,40.81s-7.07,157.7-53.3,263.75c-24.13,55.36-178.38,138.98-177.96,179.49.88,84.44,188.08,80.93,210.11,162.67,25.53,94.73,66.47,103.17,77.94,149.72,12.47,50.63-137.33,63.97-153.94,142.09-16.67,78.4,114.33,70.22,171.41,154.76,79.33,117.51-245.58,158.24-156.58,329.53,46.98,90.43,270.7,127.61,249.07,210.8-31.69,121.87-420.62,229.55-444.3,364.55-19.71,112.33,374.81,183.23,287.47,365.59"/>
        <path class="cls-1" d="M1169.09,43.87s-2.17,161.8-35.51,268.71c-17.51,56.16-188.97,141.04-191.67,178.06-6.28,86.15,197.33,77.72,224,159.4,31.21,95.61,78.82,104.63,86.22,149.14,7.32,44-168.18,68.97-176,138.43-9.39,83.48,135.88,72.1,188.97,153.15,74.43,113.65-258.36,156.22-162.36,327.05,51.24,91.19,284.63,128.18,260.76,211.24-36.29,126.23-448.72,239.02-470.31,374.47-18.25,114.47,367.74,187.92,307.07,361.75"/>
        <path class="cls-1" d="M1123.62,46.92s2.81,165.9-17.71,273.68c-10.85,56.95-199.82,142.91-205.38,176.64-14.43,87.47,206.61,74.47,237.88,156.13,36.93,96.43,79.09,109,94.51,148.56,13.48,34.58-198.08,73.47-198.06,134.76.03,88.26,157.42,73.98,206.53,151.55,69.52,109.79-271.1,154.13-168.15,324.57,55.52,91.91,298.52,128.7,272.44,211.67-41.02,130.51-476.79,248.49-496.32,384.39-16.75,116.61,360.66,192.61,326.66,357.92"/>
        <path class="cls-1" d="M1078.16,49.98s7.88,169.95.08,278.64c-4.14,57.73-210.84,144.48-219.09,175.21-23.67,88.1,215.91,71.17,251.77,152.86,42.68,97.21,93.88,108.32,102.8,147.98,6.68,29.72-227.3,76.82-220.12,131.09,12.18,92,178.81,75.96,224.09,149.94,64.39,106.09-283.82,151.99-173.94,322.08,59.81,92.6,312.38,129.16,284.13,212.11-45.87,134.7-504.84,257.95-522.33,394.31-15.23,118.74,353.59,197.3,346.25,354.08"/>
        <path class="cls-1" d="M1032.69,53.03s13,173.94,17.88,283.61c2.6,58.47-221.93,145.65-232.8,173.79-33.9,87.72,225.21,67.83,265.66,149.6,48.44,97.93,119.47,109.05,111.09,147.4-5.25,24.04-256.32,78.34-242.17,127.43,26.99,93.68,200.38,77.82,241.66,148.33,59.52,102.2-296.51,149.78-179.73,319.6,64.13,93.25,326.22,129.57,295.82,212.55-50.84,138.79-532.85,267.41-548.34,404.23-13.68,120.88,346.52,201.99,365.85,350.24"/>
      </g>
    </g>
  </g>
</svg>